<svg width="284" height="243" viewBox="0 0 284 243" fill="none" xmlns="http://www.w3.org/2000/svg">
<path d="M27.5 44C-0.899958 72 19.1667 106.667 31 122C28.6631 129.617 18 138.5 18 153C18 167.5 19.5 172 27.5 176.5C38.5 181 31.5 191.5 27.5 196.5C18.2997 208 5.5 213.167 4 213.5C15.5 223.5 54 227.669 62.5 213.5C90 249 120.5 235.669 129.5 217.5C134.276 222.658 144.12 230.508 157 235.669C166.595 239.514 177.875 241.866 190 240.5C218.4 237.3 228.5 212.833 230 201C242.5 202 273 196 281 161C285.349 141.973 275.167 121.5 269.5 111.5C272.833 94.9999 284.5 55.4415 252.5 32.9999C230 17.2207 195.5 19.3333 180.5 27C174.333 20.1667 165 2.00005 137 2C116.679 1.99996 99.6667 17.1667 93.5 27C83.3334 21 55.9 16 27.5 44Z" fill="white" stroke="#303030" stroke-width="3" stroke-linecap="round"/>
</svg>
