<svg width="279" height="240" viewBox="0 0 279 240" fill="none" xmlns="http://www.w3.org/2000/svg">
<path d="M24 42.5C-4.39996 70.5 15.6667 105.167 27.5 120.5C25.1631 128.117 14.5 137 14.5 151.5C14.5 166 16 170.5 24 175C35 179.5 28 190 24 195C14.7997 206.5 2 211.667 0.5 212C12 222 50.5 226.169 59 212C86.5 247.5 117 234.169 126 216C130.776 221.158 140.62 229.008 153.5 234.169C163.095 238.014 174.375 240.366 186.5 239C214.9 235.8 225 211.333 226.5 199.5C239 200.5 269.5 194.5 277.5 159.5C281.849 140.473 271.667 120 266 110C269.333 93.4999 289.5 68 249 31.4999C225.453 10.2786 192 17.8333 177 25.5C170.833 18.6667 161.5 0.500054 133.5 0.5C113.179 0.499961 96.1667 15.6667 90 25.5C79.8334 19.5 52.4 14.5 24 42.5Z" fill="#303030"/>
</svg>
